<svg xmlns="http://www.w3.org/2000/svg" 
    width="24" height="24" viewBox="0 0 24 24" 
    fill="none" stroke="white" stroke-width="2" 
    stroke-linecap="round" stroke-linejoin="round">

  <!-- Shopping cart -->
  <g class="shopping-cart">
    <circle cx="8" cy="21" r="1"/>
    <circle cx="19" cy="21" r="1"/>
    <path d="M2.05 2.05h2l2.66 12.42a2 2 0 0 0 2 1.58h9.78a2 2 0 0 0 1.95-1.57l1.65-7.43H5.12"/>
  </g>

  <!-- Zap, scaled to 90% height and 40% width, centered -->
  <g class="zap" transform="translate(12,12) scale(0.4,0.9) translate(-8,-12)">
    <path d="M4 14a1 1 0 0 1-.78-1.63l9.9-10.2a.5.5 0 0 1 .86.46l-1.92 6.02A1 1 0 0 0 13 10h7a1 1 0 0 1 .78 1.63l-9.9 10.2a.5.5 0 0 1-.86-.46l1.92-6.02A1 1 0 0 0 11 14z"/>
  </g>

</svg>